<?xml version="1.0" encoding="utf-8"?>
<?xml-stylesheet type="text/xsl" href="rss1.xsl"?>
<rss version="2.0" xmlns:atom="http://www.w3.org/2005/Atom" xmlns:content="http://purl.org/rss/1.0/modules/content/" xmlns:dc="http://purl.org/dc/elements/1.1/" xmlns:media="http://search.yahoo.com/mrss/">
<channel>
 <title>Getty</title>
 <link>http://www.gettyimg.com/</link>
 <atom:link href="http://www.gettyimg.com/" rel="self" type="application/rss+xml" />

 
                <item>
                <title><![CDATA[【UPSCALED】AURORA - Some Type Of Skin (4K Upscale) PCM]]></title>
                <link><![CDATA[https://sharemania.us/threads/aurora-some-type-of-skin-4k-upscale-pcm.240392/]]></link>
                <description><![CDATA[<article>
<blockquote class="messageText SelectQuoteContainer ugc baseHtml">
<img src="https://i.postimg.cc/YCnRvw89/AURORA-Some-Type-Of-Skin-4k-Upscale-PCM-mkv-thumbs.png" class="bbCodeImage LbImage" alt="[​IMG]" data-url="https://i.postimg.cc/YCnRvw89/AURORA-Some-Type-Of-Skin-4k-Upscale-PCM-mkv-thumbs.png" style=""> <br>
<br>
<span style="color: #ff0000"><b>Screenshots:</b></span><br>
<img src="https://i.postimg.cc/yxyXsqk7/AURORA-Some-Type-Of-Skin-4k-Upscale-PCM-mkv-snapshot-00-03-134.png" class="bbCodeImage LbImage" alt="[​IMG]" data-url="https://i.postimg.cc/yxyXsqk7/AURORA-Some-Type-Of-Skin-4k-Upscale-PCM-mkv-snapshot-00-03-134.png" style=""> <img src="https://i.postimg.cc/wvJQ4Rzy/AURORA-Some-Type-Of-Skin-4k-Upscale-PCM-mkv-snapshot-00-32-542.png" class="bbCodeImage LbImage" alt="[​IMG]" data-url="https://i.postimg.cc/wvJQ4Rzy/AURORA-Some-Type-Of-Skin-4k-Upscale-PCM-mkv-snapshot-00-32-542.png" style=""> <img src="https://i.postimg.cc/J0Lcf77T/AURORA-Some-Type-Of-Skin-4k-Upscale-PCM-mkv-snapshot-00-42-542.png" class="bbCodeImage LbImage" alt="[​IMG]" data-url="https://i.postimg.cc/J0Lcf77T/AURORA-Some-Type-Of-Skin-4k-Upscale-PCM-mkv-snapshot-00-42-542.png" style=""> <img src="https://i.postimg.cc/y8Yn6Nmt/AURORA-Some-Type-Of-Skin-4k-Upscale-PCM-mkv-snapshot-02-22-542.png" class="bbCodeImage LbImage" alt="[​IMG]" data-url="https://i.postimg.cc/y8Yn6Nmt/AURORA-Some-Type-Of-Skin-4k-Upscale-PCM-mkv-snapshot-02-22-542.png" style=""> <br>
<br>
<div class="ToggleTriggerAnchor bbCodeSpoilerContainer">
<button type="button" class="button bbCodeSpoilerButton ToggleTrigger Tooltip JsOnly" data-target="> .SpoilerTarget"><span>Spoiler: <span class="SpoilerTitle">MEDIAINFO</span></span></button>
<div class="SpoilerTarget bbCodeSpoilerText">General<br>
Format : Matroska<br>
Format version : Version 4<br>
File size : 920 MiB<br>
Duration : 3 min 6 s<br>
Overall bit rate : 41.3 Mb/s<br>
Frame rate : 24.000 FPS<br>
Movie name : AURORA - Some Type Of Skin<br>
Writing application : Lavf60.20.100<br>
Writing library : Lavf60.20.100<br>
ErrorDetectionType : Per level 1<br>
VIDEOAI : Enhanced using prob-4; mode: manual; revert compression at 100; recover details at 15; sharpen at 15; reduce noise at 10; dehalo at 10; anti-alias/deblur at -28; focus fix Off; and recover original detail at 20. Changed resolution to 3840x2160<br>
<br>
Video<br>
ID : 1<br>
Format : AVC<br>
Format/Info : Advanced Video Codec<br>
Format profile : High@L5.1<br>
Format settings : CABAC / 1 Ref Frames<br>
Format settings, CABAC : Yes<br>
Format settings, Reference fra : 1 frame<br>
Format settings, GOP : M=1, N=30<br>
Codec ID : V_MPEG4/ISO/AVC<br>
Duration : 3 min 6 s<br>
Bit rate : 38.4 Mb/s<br>
Width : 3 840 pixels<br>
Height : 2 160 pixels<br>
Display aspect ratio : 16:9<br>
Frame rate mode : Constant<br>
Frame rate : 24.000 FPS<br>
Standard : Component<br>
Color space : YUV<br>
Chroma subsampling : 4:2:0<br>
Bit depth : 8 bits<br>
Scan type : Progressive<br>
Bits/(Pixel*Frame) : 0.193<br>
Stream size : 854 MiB (93%)<br>
Writing library : Lavc60.37.100 h264_amf<br>
Default : No<br>
Forced : No<br>
Color range : Limited<br>
Matrix coefficients : BT.709<br>
VENDOR_ID : [0][0][0][0]<br>
<br>
Audio<br>
ID : 2<br>
Format : PCM<br>
Format settings : Little / Signed<br>
Codec ID : A_PCM/INT/LIT<br>
Duration : 3 min 6 s<br>
Bit rate mode : Constant<br>
Bit rate : 2 117 kb/s<br>
Channel(s) : 2 channels<br>
Sampling rate : 44.1 kHz<br>
Bit depth : 24 bits<br>
Delay relative to video : -42 ms<br>
Stream size : 47.1 MiB (5%)<br>
Writing library : Lavc60.37.100 pcm_s24le<br>
Default : Yes<br>
Forced : No<br>
VENDOR_ID : [0][0][0][0]</div>
</div><br>
<div class="bbCodeBlock bbCodeVfcHH HiddenContent">
<div class="attribution type">Hidden Content:</div>
<blockquote>You must reply before you can see the hidden data contained here.</blockquote>
</div>
<div class="messageTextEndMarker">&nbsp;</div>
</blockquote>
</article>]]></description>
                <author><![CDATA[Lalynsantiago]]></author>
                </item>

                </channel></rss>